<svg width="211" height="387" viewBox="0 0 211 387" fill="none" xmlns="http://www.w3.org/2000/svg">
<circle cx="2.88214" cy="2.88214" r="2.88214" transform="matrix(1 0 0 -1 0 5.76427)" fill="#BFBFBF"/>
<circle cx="2.88214" cy="2.88214" r="2.88214" transform="matrix(1 0 0 -1 111.443 5.76427)" fill="#BFBFBF"/>
<circle cx="2.88214" cy="2.88214" r="2.88214" transform="matrix(1 0 0 -1 55.7214 5.76427)" fill="#BFBFBF"/>
<circle cx="2.88214" cy="2.88214" r="2.88214" transform="matrix(1 0 0 -1 167.164 5.76427)" fill="#BFBFBF"/>
<circle cx="2.88214" cy="2.88214" r="2.88214" transform="matrix(1 0 0 -1 18.2536 5.76427)" fill="#BFBFBF"/>
<circle cx="2.88214" cy="2.88214" r="2.88214" transform="matrix(1 0 0 -1 129.696 5.76427)" fill="#BFBFBF"/>
<circle cx="2.88214" cy="2.88214" r="2.88214" transform="matrix(1 0 0 -1 74.9356 5.76427)" fill="#BFBFBF"/>
<circle cx="2.88214" cy="2.88214" r="2.88214" transform="matrix(1 0 0 -1 186.378 5.76427)" fill="#BFBFBF"/>
<circle cx="2.88214" cy="2.88214" r="2.88214" transform="matrix(1 0 0 -1 37.4678 5.76427)" fill="#BFBFBF"/>
<circle cx="2.88214" cy="2.88214" r="2.88214" transform="matrix(1 0 0 -1 148.911 5.76427)" fill="#BFBFBF"/>
<circle cx="2.88214" cy="2.88214" r="2.88214" transform="matrix(1 0 0 -1 93.1892 5.76427)" fill="#BFBFBF"/>
<circle cx="2.88214" cy="2.88214" r="2.88214" transform="matrix(1 0 0 -1 204.632 5.76427)" fill="#BFBFBF"/>
<circle cx="2.88214" cy="2.88214" r="2.88214" transform="matrix(1 0 0 -1 0 213.278)" fill="#BFBFBF"/>
<circle cx="2.88214" cy="2.88214" r="2.88214" transform="matrix(1 0 0 -1 111.443 213.278)" fill="#BFBFBF"/>
<circle cx="2.88214" cy="2.88214" r="2.88214" transform="matrix(1 0 0 -1 55.7214 213.278)" fill="#BFBFBF"/>
<circle cx="2.88214" cy="2.88214" r="2.88214" transform="matrix(1 0 0 -1 167.164 213.278)" fill="#BFBFBF"/>
<circle cx="2.88214" cy="2.88214" r="2.88214" transform="matrix(1 0 0 -1 18.2536 213.278)" fill="#BFBFBF"/>
<circle cx="2.88214" cy="2.88214" r="2.88214" transform="matrix(1 0 0 -1 129.696 213.278)" fill="#BFBFBF"/>
<circle cx="2.88214" cy="2.88214" r="2.88214" transform="matrix(1 0 0 -1 74.9356 213.278)" fill="#BFBFBF"/>
<circle cx="2.88214" cy="2.88214" r="2.88214" transform="matrix(1 0 0 -1 186.378 213.278)" fill="#BFBFBF"/>
<circle cx="2.88214" cy="2.88214" r="2.88214" transform="matrix(1 0 0 -1 37.4678 213.278)" fill="#BFBFBF"/>
<circle cx="2.88214" cy="2.88214" r="2.88214" transform="matrix(1 0 0 -1 148.911 213.278)" fill="#BFBFBF"/>
<circle cx="2.88214" cy="2.88214" r="2.88214" transform="matrix(1 0 0 -1 93.1892 213.278)" fill="#BFBFBF"/>
<circle cx="2.88214" cy="2.88214" r="2.88214" transform="matrix(1 0 0 -1 204.632 213.278)" fill="#BFBFBF"/>
<circle cx="2.88214" cy="2.88214" r="2.88214" transform="matrix(1 0 0 -1 0 109.521)" fill="#BFBFBF"/>
<circle cx="2.88214" cy="2.88214" r="2.88214" transform="matrix(1 0 0 -1 111.443 109.521)" fill="#BFBFBF"/>
<circle cx="2.88214" cy="2.88214" r="2.88214" transform="matrix(1 0 0 -1 55.7214 109.521)" fill="#BFBFBF"/>
<circle cx="2.88214" cy="2.88214" r="2.88214" transform="matrix(1 0 0 -1 167.164 109.521)" fill="#BFBFBF"/>
<circle cx="2.88214" cy="2.88214" r="2.88214" transform="matrix(1 0 0 -1 18.2536 109.521)" fill="#BFBFBF"/>
<circle cx="2.88214" cy="2.88214" r="2.88214" transform="matrix(1 0 0 -1 129.696 109.521)" fill="#BFBFBF"/>
<circle cx="2.88214" cy="2.88214" r="2.88214" transform="matrix(1 0 0 -1 74.9356 109.521)" fill="#BFBFBF"/>
<circle cx="2.88214" cy="2.88214" r="2.88214" transform="matrix(1 0 0 -1 186.378 109.521)" fill="#BFBFBF"/>
<circle cx="2.88214" cy="2.88214" r="2.88214" transform="matrix(1 0 0 -1 37.4678 109.521)" fill="#BFBFBF"/>
<circle cx="2.88214" cy="2.88214" r="2.88214" transform="matrix(1 0 0 -1 148.911 109.521)" fill="#BFBFBF"/>
<circle cx="2.88214" cy="2.88214" r="2.88214" transform="matrix(1 0 0 -1 93.1892 109.521)" fill="#BFBFBF"/>
<circle cx="2.88214" cy="2.88214" r="2.88214" transform="matrix(1 0 0 -1 204.632 109.521)" fill="#BFBFBF"/>
<circle cx="2.88214" cy="2.88214" r="2.88214" transform="matrix(1 0 0 -1 0 317.035)" fill="#BFBFBF"/>
<circle cx="2.88214" cy="2.88214" r="2.88214" transform="matrix(1 0 0 -1 111.443 317.035)" fill="#BFBFBF"/>
<circle cx="2.88214" cy="2.88214" r="2.88214" transform="matrix(1 0 0 -1 55.7214 317.035)" fill="#BFBFBF"/>
<circle cx="2.88214" cy="2.88214" r="2.88214" transform="matrix(1 0 0 -1 167.164 317.035)" fill="#BFBFBF"/>
<circle cx="2.88214" cy="2.88214" r="2.88214" transform="matrix(1 0 0 -1 18.2536 317.035)" fill="#BFBFBF"/>
<circle cx="2.88214" cy="2.88214" r="2.88214" transform="matrix(1 0 0 -1 129.696 317.035)" fill="#BFBFBF"/>
<circle cx="2.88214" cy="2.88214" r="2.88214" transform="matrix(1 0 0 -1 74.9356 317.035)" fill="#BFBFBF"/>
<circle cx="2.88214" cy="2.88214" r="2.88214" transform="matrix(1 0 0 -1 186.378 317.035)" fill="#BFBFBF"/>
<circle cx="2.88214" cy="2.88214" r="2.88214" transform="matrix(1 0 0 -1 37.4678 317.035)" fill="#BFBFBF"/>
<circle cx="2.88214" cy="2.88214" r="2.88214" transform="matrix(1 0 0 -1 148.911 317.035)" fill="#BFBFBF"/>
<circle cx="2.88214" cy="2.88214" r="2.88214" transform="matrix(1 0 0 -1 93.1892 317.035)" fill="#BFBFBF"/>
<circle cx="2.88214" cy="2.88214" r="2.88214" transform="matrix(1 0 0 -1 204.632 317.035)" fill="#BFBFBF"/>
<circle cx="2.88214" cy="2.88214" r="2.88214" transform="matrix(1 0 0 -1 0 40.3499)" fill="#BFBFBF"/>
<circle cx="2.88214" cy="2.88214" r="2.88214" transform="matrix(1 0 0 -1 111.443 40.3499)" fill="#BFBFBF"/>
<circle cx="2.88214" cy="2.88214" r="2.88214" transform="matrix(1 0 0 -1 55.7214 40.3499)" fill="#BFBFBF"/>
<circle cx="2.88214" cy="2.88214" r="2.88214" transform="matrix(1 0 0 -1 167.164 40.3499)" fill="#BFBFBF"/>
<circle cx="2.88214" cy="2.88214" r="2.88214" transform="matrix(1 0 0 -1 18.2536 40.3499)" fill="#BFBFBF"/>
<circle cx="2.88214" cy="2.88214" r="2.88214" transform="matrix(1 0 0 -1 129.696 40.3499)" fill="#BFBFBF"/>
<circle cx="2.88214" cy="2.88214" r="2.88214" transform="matrix(1 0 0 -1 74.9356 40.3499)" fill="#BFBFBF"/>
<circle cx="2.88214" cy="2.88214" r="2.88214" transform="matrix(1 0 0 -1 186.378 40.3499)" fill="#BFBFBF"/>
<circle cx="2.88214" cy="2.88214" r="2.88214" transform="matrix(1 0 0 -1 37.4678 40.3499)" fill="#BFBFBF"/>
<circle cx="2.88214" cy="2.88214" r="2.88214" transform="matrix(1 0 0 -1 148.911 40.3499)" fill="#BFBFBF"/>
<circle cx="2.88214" cy="2.88214" r="2.88214" transform="matrix(1 0 0 -1 93.1892 40.3499)" fill="#BFBFBF"/>
<circle cx="2.88214" cy="2.88214" r="2.88214" transform="matrix(1 0 0 -1 204.632 40.3499)" fill="#BFBFBF"/>
<circle cx="2.88214" cy="2.88214" r="2.88214" transform="matrix(1 0 0 -1 0 247.864)" fill="#BFBFBF"/>
<circle cx="2.88214" cy="2.88214" r="2.88214" transform="matrix(1 0 0 -1 111.443 247.864)" fill="#BFBFBF"/>
<circle cx="2.88214" cy="2.88214" r="2.88214" transform="matrix(1 0 0 -1 55.7214 247.864)" fill="#BFBFBF"/>
<circle cx="2.88214" cy="2.88214" r="2.88214" transform="matrix(1 0 0 -1 167.164 247.864)" fill="#BFBFBF"/>
<circle cx="2.88214" cy="2.88214" r="2.88214" transform="matrix(1 0 0 -1 18.2536 247.864)" fill="#BFBFBF"/>
<circle cx="2.88214" cy="2.88214" r="2.88214" transform="matrix(1 0 0 -1 129.696 247.864)" fill="#BFBFBF"/>
<circle cx="2.88214" cy="2.88214" r="2.88214" transform="matrix(1 0 0 -1 74.9356 247.864)" fill="#BFBFBF"/>
<circle cx="2.88214" cy="2.88214" r="2.88214" transform="matrix(1 0 0 -1 186.378 247.864)" fill="#BFBFBF"/>
<circle cx="2.88214" cy="2.88214" r="2.88214" transform="matrix(1 0 0 -1 37.4678 247.864)" fill="#BFBFBF"/>
<circle cx="2.88214" cy="2.88214" r="2.88214" transform="matrix(1 0 0 -1 148.911 247.864)" fill="#BFBFBF"/>
<circle cx="2.88214" cy="2.88214" r="2.88214" transform="matrix(1 0 0 -1 93.1892 247.864)" fill="#BFBFBF"/>
<circle cx="2.88214" cy="2.88214" r="2.88214" transform="matrix(1 0 0 -1 204.632 247.864)" fill="#BFBFBF"/>
<circle cx="2.88214" cy="2.88214" r="2.88214" transform="matrix(1 0 0 -1 0 144.107)" fill="#BFBFBF"/>
<circle cx="2.88214" cy="2.88214" r="2.88214" transform="matrix(1 0 0 -1 111.443 144.107)" fill="#BFBFBF"/>
<circle cx="2.88214" cy="2.88214" r="2.88214" transform="matrix(1 0 0 -1 55.7214 144.107)" fill="#BFBFBF"/>
<circle cx="2.88214" cy="2.88214" r="2.88214" transform="matrix(1 0 0 -1 167.164 144.107)" fill="#BFBFBF"/>
<circle cx="2.88214" cy="2.88214" r="2.88214" transform="matrix(1 0 0 -1 18.2536 144.107)" fill="#BFBFBF"/>
<circle cx="2.88214" cy="2.88214" r="2.88214" transform="matrix(1 0 0 -1 129.696 144.107)" fill="#BFBFBF"/>
<circle cx="2.88214" cy="2.88214" r="2.88214" transform="matrix(1 0 0 -1 74.9356 144.107)" fill="#BFBFBF"/>
<circle cx="2.88214" cy="2.88214" r="2.88214" transform="matrix(1 0 0 -1 186.378 144.107)" fill="#BFBFBF"/>
<circle cx="2.88214" cy="2.88214" r="2.88214" transform="matrix(1 0 0 -1 37.4678 144.107)" fill="#BFBFBF"/>
<circle cx="2.88214" cy="2.88214" r="2.88214" transform="matrix(1 0 0 -1 148.911 144.107)" fill="#BFBFBF"/>
<circle cx="2.88214" cy="2.88214" r="2.88214" transform="matrix(1 0 0 -1 93.1892 144.107)" fill="#BFBFBF"/>
<circle cx="2.88214" cy="2.88214" r="2.88214" transform="matrix(1 0 0 -1 204.632 144.107)" fill="#BFBFBF"/>
<circle cx="2.88214" cy="2.88214" r="2.88214" transform="matrix(1 0 0 -1 0 351.621)" fill="#BFBFBF"/>
<circle cx="2.88214" cy="2.88214" r="2.88214" transform="matrix(1 0 0 -1 111.443 351.621)" fill="#BFBFBF"/>
<circle cx="2.88214" cy="2.88214" r="2.88214" transform="matrix(1 0 0 -1 55.7214 351.621)" fill="#BFBFBF"/>
<circle cx="2.88214" cy="2.88214" r="2.88214" transform="matrix(1 0 0 -1 167.164 351.621)" fill="#BFBFBF"/>
<circle cx="2.88214" cy="2.88214" r="2.88214" transform="matrix(1 0 0 -1 18.2536 351.621)" fill="#BFBFBF"/>
<circle cx="2.88214" cy="2.88214" r="2.88214" transform="matrix(1 0 0 -1 129.696 351.621)" fill="#BFBFBF"/>
<circle cx="2.88214" cy="2.88214" r="2.88214" transform="matrix(1 0 0 -1 74.9356 351.621)" fill="#BFBFBF"/>
<circle cx="2.88214" cy="2.88214" r="2.88214" transform="matrix(1 0 0 -1 186.378 351.621)" fill="#BFBFBF"/>
<circle cx="2.88214" cy="2.88214" r="2.88214" transform="matrix(1 0 0 -1 37.4678 351.621)" fill="#BFBFBF"/>
<circle cx="2.88214" cy="2.88214" r="2.88214" transform="matrix(1 0 0 -1 148.911 351.621)" fill="#BFBFBF"/>
<circle cx="2.88214" cy="2.88214" r="2.88214" transform="matrix(1 0 0 -1 93.1892 351.621)" fill="#BFBFBF"/>
<circle cx="2.88214" cy="2.88214" r="2.88214" transform="matrix(1 0 0 -1 204.632 351.621)" fill="#BFBFBF"/>
<circle cx="2.88214" cy="2.88214" r="2.88214" transform="matrix(1 0 0 -1 0 74.9356)" fill="#BFBFBF"/>
<circle cx="2.88214" cy="2.88214" r="2.88214" transform="matrix(1 0 0 -1 111.443 74.9356)" fill="#BFBFBF"/>
<circle cx="2.88214" cy="2.88214" r="2.88214" transform="matrix(1 0 0 -1 55.7214 74.9356)" fill="#BFBFBF"/>
<circle cx="2.88214" cy="2.88214" r="2.88214" transform="matrix(1 0 0 -1 167.164 74.9356)" fill="#BFBFBF"/>
<circle cx="2.88214" cy="2.88214" r="2.88214" transform="matrix(1 0 0 -1 18.2536 74.9356)" fill="#BFBFBF"/>
<circle cx="2.88214" cy="2.88214" r="2.88214" transform="matrix(1 0 0 -1 129.696 74.9356)" fill="#BFBFBF"/>
<circle cx="2.88214" cy="2.88214" r="2.88214" transform="matrix(1 0 0 -1 74.9356 74.9356)" fill="#BFBFBF"/>
<circle cx="2.88214" cy="2.88214" r="2.88214" transform="matrix(1 0 0 -1 186.378 74.9356)" fill="#BFBFBF"/>
<circle cx="2.88214" cy="2.88214" r="2.88214" transform="matrix(1 0 0 -1 37.4678 74.9356)" fill="#BFBFBF"/>
<circle cx="2.88214" cy="2.88214" r="2.88214" transform="matrix(1 0 0 -1 148.911 74.9356)" fill="#BFBFBF"/>
<circle cx="2.88214" cy="2.88214" r="2.88214" transform="matrix(1 0 0 -1 93.1892 74.9356)" fill="#BFBFBF"/>
<circle cx="2.88214" cy="2.88214" r="2.88214" transform="matrix(1 0 0 -1 204.632 74.9356)" fill="#BFBFBF"/>
<circle cx="2.88214" cy="2.88214" r="2.88214" transform="matrix(1 0 0 -1 0 282.45)" fill="#BFBFBF"/>
<circle cx="2.88214" cy="2.88214" r="2.88214" transform="matrix(1 0 0 -1 111.443 282.45)" fill="#BFBFBF"/>
<circle cx="2.88214" cy="2.88214" r="2.88214" transform="matrix(1 0 0 -1 55.7214 282.45)" fill="#BFBFBF"/>
<circle cx="2.88214" cy="2.88214" r="2.88214" transform="matrix(1 0 0 -1 167.164 282.45)" fill="#BFBFBF"/>
<circle cx="2.88214" cy="2.88214" r="2.88214" transform="matrix(1 0 0 -1 18.2536 282.45)" fill="#BFBFBF"/>
<circle cx="2.88214" cy="2.88214" r="2.88214" transform="matrix(1 0 0 -1 129.696 282.45)" fill="#BFBFBF"/>
<circle cx="2.88214" cy="2.88214" r="2.88214" transform="matrix(1 0 0 -1 74.9356 282.45)" fill="#BFBFBF"/>
<circle cx="2.88214" cy="2.88214" r="2.88214" transform="matrix(1 0 0 -1 186.378 282.45)" fill="#BFBFBF"/>
<circle cx="2.88214" cy="2.88214" r="2.88214" transform="matrix(1 0 0 -1 37.4678 282.45)" fill="#BFBFBF"/>
<circle cx="2.88214" cy="2.88214" r="2.88214" transform="matrix(1 0 0 -1 148.911 282.45)" fill="#BFBFBF"/>
<circle cx="2.88214" cy="2.88214" r="2.88214" transform="matrix(1 0 0 -1 93.1892 282.45)" fill="#BFBFBF"/>
<circle cx="2.88214" cy="2.88214" r="2.88214" transform="matrix(1 0 0 -1 204.632 282.45)" fill="#BFBFBF"/>
<circle cx="2.88214" cy="2.88214" r="2.88214" transform="matrix(1 0 0 -1 0 178.693)" fill="#BFBFBF"/>
<circle cx="2.88214" cy="2.88214" r="2.88214" transform="matrix(1 0 0 -1 111.443 178.693)" fill="#BFBFBF"/>
<circle cx="2.88214" cy="2.88214" r="2.88214" transform="matrix(1 0 0 -1 55.7214 178.693)" fill="#BFBFBF"/>
<circle cx="2.88214" cy="2.88214" r="2.88214" transform="matrix(1 0 0 -1 167.164 178.693)" fill="#BFBFBF"/>
<circle cx="2.88214" cy="2.88214" r="2.88214" transform="matrix(1 0 0 -1 18.2536 178.693)" fill="#BFBFBF"/>
<circle cx="2.88214" cy="2.88214" r="2.88214" transform="matrix(1 0 0 -1 129.696 178.693)" fill="#BFBFBF"/>
<circle cx="2.88214" cy="2.88214" r="2.88214" transform="matrix(1 0 0 -1 74.9356 178.693)" fill="#BFBFBF"/>
<circle cx="2.88214" cy="2.88214" r="2.88214" transform="matrix(1 0 0 -1 186.378 178.693)" fill="#BFBFBF"/>
<circle cx="2.88214" cy="2.88214" r="2.88214" transform="matrix(1 0 0 -1 37.4678 178.693)" fill="#BFBFBF"/>
<circle cx="2.88214" cy="2.88214" r="2.88214" transform="matrix(1 0 0 -1 148.911 178.693)" fill="#BFBFBF"/>
<circle cx="2.88214" cy="2.88214" r="2.88214" transform="matrix(1 0 0 -1 93.1892 178.693)" fill="#BFBFBF"/>
<circle cx="2.88214" cy="2.88214" r="2.88214" transform="matrix(1 0 0 -1 204.632 178.693)" fill="#BFBFBF"/>
<circle cx="2.88214" cy="2.88214" r="2.88214" transform="matrix(1 0 0 -1 0 386.207)" fill="#BFBFBF"/>
<circle cx="2.88214" cy="2.88214" r="2.88214" transform="matrix(1 0 0 -1 111.443 386.207)" fill="#BFBFBF"/>
<circle cx="2.88214" cy="2.88214" r="2.88214" transform="matrix(1 0 0 -1 55.7214 386.207)" fill="#BFBFBF"/>
<circle cx="2.88214" cy="2.88214" r="2.88214" transform="matrix(1 0 0 -1 167.164 386.207)" fill="#BFBFBF"/>
<circle cx="2.88214" cy="2.88214" r="2.88214" transform="matrix(1 0 0 -1 18.2536 386.207)" fill="#BFBFBF"/>
<circle cx="2.88214" cy="2.88214" r="2.88214" transform="matrix(1 0 0 -1 129.696 386.207)" fill="#BFBFBF"/>
<circle cx="2.88214" cy="2.88214" r="2.88214" transform="matrix(1 0 0 -1 74.9356 386.207)" fill="#BFBFBF"/>
<circle cx="2.88214" cy="2.88214" r="2.88214" transform="matrix(1 0 0 -1 186.378 386.207)" fill="#BFBFBF"/>
<circle cx="2.88214" cy="2.88214" r="2.88214" transform="matrix(1 0 0 -1 37.4678 386.207)" fill="#BFBFBF"/>
<circle cx="2.88214" cy="2.88214" r="2.88214" transform="matrix(1 0 0 -1 148.911 386.207)" fill="#BFBFBF"/>
<circle cx="2.88214" cy="2.88214" r="2.88214" transform="matrix(1 0 0 -1 93.1892 386.207)" fill="#BFBFBF"/>
<circle cx="2.88214" cy="2.88214" r="2.88214" transform="matrix(1 0 0 -1 204.632 386.207)" fill="#BFBFBF"/>
</svg>
