<svg width="31" height="30" viewBox="0 0 31 30" fill="none" xmlns="http://www.w3.org/2000/svg">
<path d="M15.6666 0C7.19465 0 0.333313 6.86133 0.333313 15.3333C0.333313 22.1187 4.72265 27.8493 10.8173 29.88C11.584 30.0147 11.8706 29.5547 11.8706 29.152C11.8706 28.788 11.852 27.5813 11.852 26.296C7.99998 27.0053 7.00398 25.3573 6.69731 24.496C6.52398 24.0547 5.77731 22.6933 5.12398 22.3293C4.58798 22.0413 3.82131 21.332 5.10531 21.3133C6.31331 21.2947 7.17598 22.4253 7.46398 22.8853C8.84398 25.2053 11.048 24.552 11.9293 24.1493C12.0626 23.1533 12.4653 22.4827 12.9066 22.0987C9.49465 21.716 5.93065 20.3933 5.93065 14.528C5.93065 12.8613 6.52398 11.4813 7.50131 10.408C7.34798 10.024 6.81198 8.452 7.65465 6.344C7.65465 6.344 8.93865 5.94133 11.872 7.916C13.0986 7.57067 14.4013 7.39867 15.7053 7.39867C17.008 7.39867 18.312 7.572 19.5386 7.916C22.472 5.92267 23.7546 6.344 23.7546 6.344C24.5986 8.452 24.0613 10.024 23.908 10.408C24.8853 11.4813 25.48 12.8413 25.48 14.528C25.48 20.412 21.896 21.7147 18.484 22.0987C19.04 22.5787 19.5186 23.4987 19.5186 24.936C19.5186 26.9867 19.5 28.6347 19.5 29.152C19.5 29.5547 19.788 30.0347 20.5533 29.8813C26.612 27.8493 31 22.0987 31 15.3333C31 6.86133 24.1386 0 15.6666 0Z" fill="black"/>
</svg>
